# xmcd
#
# Track frame offsets:
# 182
# 14355
# 28382
# 40682
# 55832
# 69932
# 80507
# 98957
# 113432
# 126782
# 142157
#
# Disc length: 2095 seconds
#
# Revision: 1
# Processed by: cddbd v1.4PL0 Copyright (c) Steve Scherf et al.
# Submitted via: CedeCatalogueitor 2.5 http://usuarios.lycos.es/kakasboy
#
DISCID=90082d0b
DTITLE=La Frontera - Tren De Medianoche
DYEAR=1987
DGENRE=Rock Español
TTITLE0=Otro Trago Más
TTITLE1=El Rey De La Noche
TTITLE2=Aunque El Tiempo Nos Separe
TTITLE3=Siete Calaveras
TTITLE4=¿Quién Rompió El Hechizo?
TTITLE5=Habitación 206
TTITLE6=Tren De Medianoche
TTITLE7=Mi Destino
TTITLE8=Todo Cambiará Mañana
TTITLE9=El Fantasma Del Ahorcado
TTITLE10=Siempre Hay Algo Que Celebrar
EXTD=
EXTT0=
EXTT1=
EXTT2=
EXTT3=
EXTT4=
EXTT5=
EXTT6=
EXTT7=
EXTT8=
EXTT9=
EXTT10=
PLAYORDER=
